<svg id="Layer_1" enable-background="new 0 0 512 512" height="512" viewBox="0 0 512 512" width="512" xmlns="http://www.w3.org/2000/svg"><g><g><g><g><path d="m512 174.159v271.35c0 17.15-13.96 31.11-31.11 31.11h-449.78c-17.15 0-31.11-13.96-31.11-31.11v-271.35l256-30 231 27.07z" fill="#fff2d9"/><path d="m512 174.159v271.35c0 17.15-13.96 31.11-31.11 31.11h-25c17.15 0 31.11-13.96 31.11-31.11v-274.28z" fill="#ffde8f"/><path d="m512 137.259v36.9h-512v-36.9c0-17.15 13.96-31.1 31.11-31.1h199.17c2.06 0 4.03.84 5.44 2.34 5.33 5.63 12.54 8.73 20.28 8.73 7.75 0 14.96-3.1 20.29-8.73 1.41-1.5 3.38-2.34 5.44-2.34h199.16c17.15 0 31.11 13.95 31.11 31.1z" fill="#ff6e6e"/><path d="m512 137.259v36.9h-25v-36.9c0-17.15-13.96-31.1-31.11-31.1h25c17.15 0 31.11 13.95 31.11 31.1z" fill="#f44e92"/><path d="m494.5 70.805h-19.073v-7.5c0-4.142-3.358-7.5-7.5-7.5s-7.5 3.358-7.5 7.5v7.5h-51.23v-7.5c0-4.142-3.358-7.5-7.5-7.5s-7.5 3.358-7.5 7.5v7.5h-52.546v-7.5c0-4.142-3.358-7.5-7.5-7.5s-7.5 3.358-7.5 7.5v7.5h-28.378c-3.558-20.104-21.158-35.424-42.269-35.424s-38.71 15.32-42.269 35.424h-28.388v-7.5c0-4.142-3.358-7.5-7.5-7.5s-7.5 3.358-7.5 7.5v7.5h-52.546v-7.5c0-4.142-3.358-7.5-7.5-7.5s-7.5 3.358-7.5 7.5v7.5h-51.23v-7.5c0-4.142-3.358-7.5-7.5-7.5s-7.5 3.358-7.5 7.5v7.5h-19.071c-4.142 0-7.5 3.358-7.5 7.5s3.358 7.5 7.5 7.5h19.073v42.85c0 4.142 3.358 7.5 7.5 7.5s7.5-3.358 7.5-7.5v-42.85h51.23v42.85c0 4.142 3.358 7.5 7.5 7.5s7.5-3.358 7.5-7.5v-42.85h52.546v42.85c0 4.142 3.358 7.5 7.5 7.5s7.5-3.358 7.5-7.5v-42.85h35.232c4.142 0 7.5-3.358 7.5-7.5 0-15.397 12.527-27.924 27.924-27.924s27.924 12.527 27.924 27.924c0 4.142 3.358 7.5 7.5 7.5h35.222v42.85c0 4.142 3.358 7.5 7.5 7.5s7.5-3.358 7.5-7.5v-42.85h52.546v42.85c0 4.142 3.358 7.5 7.5 7.5s7.5-3.358 7.5-7.5v-42.85h51.23v42.85c0 4.142 3.358 7.5 7.5 7.5s7.5-3.358 7.5-7.5v-42.85h19.073c4.142 0 7.5-3.358 7.5-7.5s-3.358-7.5-7.5-7.5z" fill="#4f667a"/></g></g></g><g><path d="m95.597 211.053h-48.349c-4.142 0-7.5 3.358-7.5 7.5v48.349c0 4.142 3.358 7.5 7.5 7.5h48.349c4.142 0 7.5-3.358 7.5-7.5v-48.349c0-4.142-3.358-7.5-7.5-7.5z" fill="#aac3d6"/><path d="m464.767 211.053h-48.349c-4.143 0-7.5 3.358-7.5 7.5v48.349c0 4.142 3.357 7.5 7.5 7.5h48.349c4.143 0 7.5-3.358 7.5-7.5v-48.349c0-4.142-3.357-7.5-7.5-7.5z" fill="#ff6e6e"/><g fill="#aac3d6"><path d="m280.167 211.053h-48.35c-4.143 0-7.5 3.358-7.5 7.5v48.349c0 4.142 3.357 7.5 7.5 7.5h48.35c4.143 0 7.5-3.358 7.5-7.5v-48.349c0-4.142-3.357-7.5-7.5-7.5z"/><path d="m187.882 211.053h-48.349c-4.142 0-7.5 3.358-7.5 7.5v48.349c0 4.142 3.358 7.5 7.5 7.5h48.349c4.142 0 7.5-3.358 7.5-7.5v-48.349c0-4.142-3.358-7.5-7.5-7.5z"/><path d="m372.467 211.053h-48.349c-4.143 0-7.5 3.358-7.5 7.5v48.349c0 4.142 3.357 7.5 7.5 7.5h48.349c4.143 0 7.5-3.358 7.5-7.5v-48.349c0-4.142-3.357-7.5-7.5-7.5z"/><path d="m95.582 375.446h-48.349c-4.142 0-7.5 3.358-7.5 7.5v48.349c0 4.142 3.358 7.5 7.5 7.5h48.349c4.142 0 7.5-3.358 7.5-7.5v-48.349c0-4.143-3.358-7.5-7.5-7.5z"/></g><path d="m464.752 375.446h-48.349c-4.143 0-7.5 3.358-7.5 7.5v48.349c0 4.142 3.357 7.5 7.5 7.5h48.349c4.143 0 7.5-3.358 7.5-7.5v-48.349c0-4.143-3.357-7.5-7.5-7.5z" fill="#ff6e6e"/><path d="m280.153 375.446h-48.35c-4.143 0-7.5 3.358-7.5 7.5v48.349c0 4.142 3.357 7.5 7.5 7.5h48.35c4.143 0 7.5-3.358 7.5-7.5v-48.349c0-4.143-3.358-7.5-7.5-7.5z" fill="#aac3d6"/><path d="m187.867 375.446h-48.349c-4.142 0-7.5 3.358-7.5 7.5v48.349c0 4.142 3.358 7.5 7.5 7.5h48.349c4.142 0 7.5-3.358 7.5-7.5v-48.349c0-4.143-3.358-7.5-7.5-7.5z" fill="#aac3d6"/><path d="m372.453 375.446h-48.35c-4.143 0-7.5 3.358-7.5 7.5v48.349c0 4.142 3.357 7.5 7.5 7.5h48.35c4.143 0 7.5-3.358 7.5-7.5v-48.349c0-4.143-3.358-7.5-7.5-7.5z" fill="#aac3d6"/><path d="m95.582 293.25h-48.349c-4.142 0-7.5 3.358-7.5 7.5v48.349c0 4.142 3.358 7.5 7.5 7.5h48.349c4.142 0 7.5-3.358 7.5-7.5v-48.349c0-4.142-3.358-7.5-7.5-7.5z" fill="#aac3d6"/><path d="m464.752 293.25h-48.349c-4.143 0-7.5 3.358-7.5 7.5v48.349c0 4.142 3.357 7.5 7.5 7.5h48.349c4.143 0 7.5-3.358 7.5-7.5v-48.349c0-4.142-3.357-7.5-7.5-7.5z" fill="#ff6e6e"/><path d="m280.153 293.25h-48.35c-4.143 0-7.5 3.358-7.5 7.5v48.349c0 4.142 3.357 7.5 7.5 7.5h48.35c4.143 0 7.5-3.358 7.5-7.5v-48.349c0-4.142-3.358-7.5-7.5-7.5z" fill="#aac3d6"/><path d="m187.867 293.25h-48.349c-4.142 0-7.5 3.358-7.5 7.5v48.349c0 4.142 3.358 7.5 7.5 7.5h48.349c4.142 0 7.5-3.358 7.5-7.5v-48.349c0-4.142-3.358-7.5-7.5-7.5z" fill="#aac3d6"/><path d="m372.453 293.25h-48.35c-4.143 0-7.5 3.358-7.5 7.5v48.349c0 4.142 3.357 7.5 7.5 7.5h48.35c4.143 0 7.5-3.358 7.5-7.5v-48.349c0-4.142-3.358-7.5-7.5-7.5z" fill="#aac3d6"/></g></g></svg>